<svg xmlns="http://www.w3.org/2000/svg" width="23" height="22" viewBox="0 0 23 22">
    <g fill="#275C86" fill-rule="evenodd">
        <path d="M11.266 1.984c2.912 0 3.257.011 4.407.064 1.063.05 1.64.228 2.025.379.509.2.872.437 1.254.822.381.385.618.75.816 1.264.149.387.327.97.375 2.041.053 1.16.064 1.507.064 4.442 0 2.935-.011 3.283-.064 4.442-.048 1.072-.226 1.654-.375 2.04-.198.514-.435.88-.816 1.265a3.376 3.376 0 0 1-1.254.822c-.384.15-.962.33-2.025.379-1.15.053-1.495.064-4.407.064s-3.257-.011-4.406-.064c-1.063-.05-1.64-.228-2.025-.379a3.376 3.376 0 0 1-1.254-.822 3.408 3.408 0 0 1-.816-1.264c-.15-.387-.327-.97-.375-2.041-.053-1.16-.064-1.507-.064-4.442 0-2.935.011-3.283.064-4.442.048-1.072.226-1.654.375-2.041.198-.513.434-.88.816-1.264a3.377 3.377 0 0 1 1.254-.822c.384-.15.962-.33 2.025-.379 1.15-.053 1.495-.064 4.406-.064m0-1.98C8.305.003 7.933.015 6.77.07 5.61.123 4.817.309 4.123.58a5.341 5.341 0 0 0-1.931 1.268A5.393 5.393 0 0 0 .934 3.795c-.27.7-.454 1.499-.507 2.669C.374 7.636.36 8.01.36 10.996c0 2.985.013 3.36.066 4.532.053 1.17.237 1.97.507 2.668a5.393 5.393 0 0 0 1.258 1.947 5.341 5.341 0 0 0 1.931 1.268c.694.272 1.486.458 2.647.511 1.163.054 1.535.066 4.496.066 2.962 0 3.333-.012 4.497-.066 1.16-.053 1.953-.239 2.647-.51a5.341 5.341 0 0 0 1.931-1.269 5.393 5.393 0 0 0 1.258-1.947c.27-.699.454-1.498.507-2.668.053-1.172.066-1.547.066-4.532 0-2.985-.013-3.36-.066-4.532-.053-1.17-.237-1.97-.507-2.669a5.393 5.393 0 0 0-1.258-1.947A5.341 5.341 0 0 0 18.41.581C17.716.309 16.923.123 15.763.07 14.599.016 14.228.003 11.266.003"/>
        <path d="M11.266 5.351c-3.092 0-5.6 2.527-5.6 5.645 0 3.117 2.508 5.645 5.6 5.645 3.093 0 5.6-2.528 5.6-5.645 0-3.118-2.507-5.645-5.6-5.645zm0 9.31c-2.007 0-3.635-1.641-3.635-3.665s1.628-3.664 3.635-3.664c2.008 0 3.635 1.64 3.635 3.664s-1.627 3.664-3.635 3.664zM18.396 5.128c0 .729-.586 1.32-1.308 1.32-.723 0-1.31-.591-1.31-1.32 0-.728.587-1.319 1.31-1.319.722 0 1.308.59 1.308 1.32"/>
    </g>
</svg>
