<svg xmlns="http://www.w3.org/2000/svg" width="24" height="20" viewBox="0 0 24 20">
    <path fill="#55ACEE" fill-rule="evenodd" d="M22.54.99c-.669.431-2.204 1.058-2.961 1.058v.002A4.719 4.719 0 0 0 16.147.57c-2.622 0-4.749 2.144-4.749 4.786 0 .367.043.725.12 1.068C7.96 6.33 4.07 4.534 1.729 1.458.29 3.97 1.536 6.764 3.17 7.782c-.559.042-1.588-.065-2.073-.542-.033 1.667.763 3.877 3.663 4.678-.559.303-1.547.216-1.977.152.15 1.407 2.106 3.247 4.244 3.247-.762.889-3.63 2.5-6.847 1.988a14.183 14.183 0 0 0 7.428 2.116c7.66 0 13.61-6.258 13.29-13.978l-.003-.027.002-.06-.002-.07a8.228 8.228 0 0 0 2.301-2.45c-.388.215-1.55.646-2.633.753.695-.378 1.724-1.616 1.978-2.6"/>
</svg>
