<svg xmlns="http://www.w3.org/2000/svg" width="25" height="24" viewBox="0 0 25 24">
    <path fill="#FFFC00" fill-rule="evenodd" stroke="#000" stroke-width=".5" d="M12.587 1c.915 0 4.065.248 5.55 3.603.488 1.104.363 3.105.262 4.713l-.043.738-.006.102.067.075c.028.03.282.298.847.32l.009.001h.01c.373-.015.794-.132 1.251-.347a.607.607 0 0 1 .252-.048c.108 0 .223.02.317.061l.015.006c.24.084.409.244.411.388.002.082-.059.376-.909.715a5.187 5.187 0 0 1-.319.108c-.552.177-1.388.444-1.669 1.112-.158.376-.115.82.129 1.319.1.236 1.678 3.819 5.23 4.409a.16.16 0 0 1-.015.057c-.06.143-.443.637-2.823 1.007-.373.057-.464.478-.57.968a7.775 7.775 0 0 1-.13.534c-.017.055-.02.059-.079.059h-.028c-.105 0-.265-.023-.451-.06a6.933 6.933 0 0 0-1.391-.147c-.33 0-.67.029-1.01.086-.729.122-1.321.545-1.949.992-.842.6-1.713 1.22-3.042 1.22-.058 0-.115-.001-.171-.004h-.03a1.125 1.125 0 0 1-.1.005c-1.328 0-2.2-.621-3.041-1.221-.628-.447-1.22-.87-1.95-.992a6.124 6.124 0 0 0-1.009-.086c-.59 0-1.053.09-1.391.157a2.82 2.82 0 0 1-.452.068c-.086 0-.088-.005-.106-.067-.053-.183-.092-.364-.13-.54-.106-.489-.198-.912-.57-.97-2.38-.37-2.763-.865-2.823-1.007a.176.176 0 0 1-.015-.059c3.551-.59 5.129-4.172 5.23-4.41.243-.498.287-.942.128-1.318-.281-.668-1.116-.935-1.669-1.112a5.305 5.305 0 0 1-.32-.108c-.717-.286-.937-.574-.905-.748.038-.202.384-.406.686-.406a.41.41 0 0 1 .172.032c.49.231.937.349 1.33.349.617 0 .892-.29.921-.323l.067-.075-.005-.101a69.545 69.545 0 0 0-.044-.738c-.1-1.608-.226-3.608.263-4.712 1.479-3.343 4.614-3.6 5.539-3.6L12.533 1h.054"/>
</svg>
