<svg xmlns="http://www.w3.org/2000/svg" width="22" height="22" viewBox="0 0 22 22">
    <path fill="#1DB954" fill-rule="evenodd" d="M18.388 9.241c-.284.482-.898.64-1.377.355C13.549 7.52 7.837 7.331 4.532 8.342c-.53.164-1.09-.14-1.255-.675-.159-.536.14-1.104.672-1.264 3.795-1.164 10.102-.939 14.087 1.45.479.285.635.907.352 1.388m-1.491 3.587a.831.831 0 0 1-1.15.276c-2.886-1.79-7.289-2.308-10.705-1.262a.836.836 0 0 1-1.044-.562.847.847 0 0 1 .556-1.056c3.903-1.195 8.753-.616 12.069 1.44a.849.849 0 0 1 .274 1.164m-1.313 3.118a.662.662 0 0 1-.919.227c-2.524-1.556-5.698-1.908-9.438-1.047a.665.665 0 0 1-.8-.507.672.672 0 0 1 .503-.808c4.091-.944 7.602-.536 10.433 1.207.314.195.415.61.22.928M10.883 0C4.864 0-.016 4.923-.016 10.996s4.88 10.996 10.898 10.996 10.897-4.923 10.897-10.996S16.9 0 10.882 0"/>
</svg>
