<svg xmlns="http://www.w3.org/2000/svg" width="23" height="22" viewBox="0 0 23 22">
    <path fill="#CC2127" fill-rule="evenodd" d="M11.434 0C5.416 0 .536 4.923.536 10.996c0 4.526 2.711 8.413 6.583 10.101-.028-.766 0-1.68.192-2.51.211-.894 1.408-6.013 1.408-6.013s-.35-.705-.35-1.746c0-1.634.94-2.857 2.11-2.857.995 0 1.476.756 1.476 1.658 0 1.01-.638 2.518-.968 3.915-.272 1.17.584 2.126 1.728 2.126 2.071 0 3.466-2.685 3.466-5.868 0-2.417-1.612-4.229-4.55-4.229-3.316 0-5.385 2.497-5.385 5.286 0 .961.282 1.64.723 2.164.202.241.23.339.155.617-.053.201-.17.69-.221.885-.073.28-.298.378-.548.275-1.527-.628-2.24-2.317-2.24-4.215 0-3.135 2.62-6.895 7.816-6.895 4.177 0 6.925 3.05 6.925 6.321 0 4.332-2.386 7.565-5.901 7.565-1.181 0-2.293-.645-2.671-1.375 0 0-.637 2.54-.77 3.033-.23.838-.672 1.676-1.082 2.336.953.274 1.96.422 3.002.422 6.018 0 10.897-4.924 10.897-10.996C22.331 4.923 17.451 0 11.434 0"/>
</svg>
